<svg width="35" height="35" viewBox="0 0 35 35" fill="none" xmlns="http://www.w3.org/2000/svg">
<path d="M2.9165 14.5833H32.0832M16.8411 29.8955H9.38901C4.21193 29.8955 2.89941 28.6122 2.89941 23.4934V11.5059C2.89941 6.86842 3.97862 5.38091 8.04737 5.14758C8.45571 5.133 8.90776 5.11841 9.38901 5.11841H25.5911C30.7682 5.11841 32.0807 6.40174 32.0807 11.5205V17.9517M8.74984 23.3333H14.5832M23.9769 26.2493L25.4206 27.6931L28.5269 24.8201M32.0832 26.25C32.0832 27.3437 31.7769 28.3792 31.2373 29.2542C30.2311 30.9458 28.379 32.0833 26.2498 32.0833C24.1207 32.0833 22.2686 30.9458 21.2624 29.2542C20.7228 28.3792 20.4165 27.3437 20.4165 26.25C20.4165 23.0271 23.0269 20.4167 26.2498 20.4167C29.4728 20.4167 32.0832 23.0271 32.0832 26.25Z" stroke="#FEFEF2" stroke-width="1.5" stroke-linecap="round" stroke-linejoin="round"/>
</svg>
