<svg width="35" height="35" viewBox="0 0 35 35" fill="none" xmlns="http://www.w3.org/2000/svg">
<path d="M13.6023 24.5V10.5H20.2841C21.1702 10.5 22.0199 10.8161 22.6465 11.3787C23.273 11.9413 23.625 12.7044 23.625 13.5C23.625 14.2957 23.273 15.0587 22.6465 15.6213C22.0199 16.1839 21.1702 16.5 20.2841 16.5H11.375M20.2841 20.5H11.375M31.5 17.5C31.5 25.232 25.232 31.5 17.5 31.5C9.76801 31.5 3.5 25.232 3.5 17.5C3.5 9.76801 9.76801 3.5 17.5 3.5C25.232 3.5 31.5 9.76801 31.5 17.5Z" stroke="#FEFEF2" stroke-width="2" stroke-linecap="round" stroke-linejoin="round"/>
</svg>
