<svg width="35" height="35" viewBox="0 0 35 35" fill="none" xmlns="http://www.w3.org/2000/svg">
<path d="M9.77069 26.25H6.05196C3.96654 26.25 2.9165 25.1999 2.9165 23.1145V6.05208C2.9165 3.96666 3.96654 2.91663 6.05196 2.91663H12.3228C14.4082 2.91663 15.4581 3.96666 15.4581 6.05208V8.74996M19.5415 8.74996V6.05208C19.5415 3.96666 20.5915 2.91663 22.6769 2.91663H28.9477C31.0331 2.91663 32.0832 3.96666 32.0832 6.05208V23.1145C32.0832 25.1999 31.0331 26.25 28.9477 26.25H25.3311M14.5832 16.0416H20.4165M14.5832 20.4166H20.4165M17.4998 32.0833V27.7083M25.3311 12.2791V28.5541C25.3311 30.9021 24.1645 32.0833 21.8165 32.0833H13.2998C10.9519 32.0833 9.77069 30.9021 9.77069 28.5541V12.2791C9.77069 9.93118 10.9519 8.74996 13.2998 8.74996H21.8165C24.1645 8.74996 25.3311 9.93118 25.3311 12.2791Z" stroke="#FEFEF2" stroke-width="1.5" stroke-miterlimit="10" stroke-linecap="round" stroke-linejoin="round"/>
</svg>
