<svg width="35" height="35" viewBox="0 0 35 35" fill="none" xmlns="http://www.w3.org/2000/svg">
<path d="M32.0832 9.47917H23.3332M8.74984 9.47917H2.9165M32.0832 25.5208H26.2498M11.6665 25.5208H2.9165M19.6873 9.47917C19.6873 12.2981 17.4021 14.5833 14.5832 14.5833C11.7642 14.5833 9.479 12.2981 9.479 9.47917C9.479 6.66021 11.7642 4.375 14.5832 4.375C17.4021 4.375 19.6873 6.66021 19.6873 9.47917ZM25.5207 25.5208C25.5207 28.3398 23.2355 30.625 20.4165 30.625C17.5975 30.625 15.3123 28.3398 15.3123 25.5208C15.3123 22.7019 17.5975 20.4167 20.4165 20.4167C23.2355 20.4167 25.5207 22.7019 25.5207 25.5208Z" stroke="#FEFEF2" stroke-width="1.5" stroke-miterlimit="10" stroke-linecap="round" stroke-linejoin="round"/>
</svg>
